<svg width="430" height="279" viewBox="0 0 430 279" fill="none" xmlns="http://www.w3.org/2000/svg">
<g clip-path="url(#clip0_1_2)">
<path d="M70.9441 228.983C66.1956 230.615 62.5441 230.338 58.0206 228.004C51.3081 224.544 48.1769 218.507 48.1769 209.029C48.1769 199.508 51.0081 192.201 60.2659 177.833C78.6738 149.268 118.611 108.341 151.438 84.4068C155.103 81.735 159.843 78.4818 161.971 77.174C164.099 75.8615 165.786 74.7459 165.721 74.685C165.477 74.4646 145.264 76.2881 139.818 77.0193C124.733 79.0443 108.332 83.0287 94.8175 87.9506C87.8191 90.5006 76.9816 96.0834 73.7238 98.8209C70.1753 101.797 68.2769 102.805 66.8612 102.444C64.8034 101.924 61.9534 99.7021 60.3738 97.3865C59.0003 95.3756 58.7753 94.6209 58.5878 91.4193C58.4144 88.4193 58.555 87.3553 59.3472 85.5646C61.2784 81.1959 67.4753 75.7959 74.6613 72.2287C79.5878 69.7771 88.0581 66.4865 91.6816 65.61C92.6331 65.3803 96.2613 64.4568 99.7394 63.5568C121.246 57.9975 149.633 54.21 170.286 54.1396C186.814 54.0787 194.446 55.7803 199.41 60.6225C201.918 63.0693 202.855 65.1693 202.86 68.3475C202.869 72.8381 198.8 76.9256 180.833 90.4725C166.021 101.638 161.014 105.637 152.3 113.23C137.736 125.924 120.088 144.374 109.325 158.16C102.833 166.476 90.1816 186.083 90.9034 186.712C90.9925 186.791 93.5988 186.027 96.6925 185.019C113.685 179.488 135.425 174.533 145.082 173.999L150.35 173.708L152.816 175.335C163.025 182.08 170.53 183.538 182.943 181.185C189.65 179.915 209.535 176.802 219.622 175.443C223.035 174.983 226.053 174.472 226.325 174.304C226.597 174.135 227.113 172.644 227.464 170.994C227.821 169.34 228.627 165.829 229.26 163.185C229.893 160.541 230.272 158.38 230.099 158.38C229.925 158.38 229.007 159.416 228.06 160.687C226.1 163.312 221.46 166.752 218.319 167.91C214.063 169.476 208.293 168.679 204.838 166.044C202.452 164.221 200.521 159.815 200.521 156.182C200.521 154.583 200.342 153.168 200.127 153.037C199.907 152.901 198.486 154.626 196.963 156.876C191.38 165.121 183.969 171.618 177.182 174.21C174.566 175.213 173.207 175.419 169.114 175.452C164.638 175.485 163.953 175.372 161.539 174.187C156.435 171.679 153.758 167.076 153.308 160.021C152.521 147.754 160.982 129.646 174.046 115.63C188.108 100.546 203.568 95.3006 211.41 102.946L213.163 104.647L214.691 102.946C218.553 98.6521 228.988 98.7412 231.238 103.091C232.25 105.055 232.1 106.387 230.347 110.929C228.003 116.999 224.258 128.263 222.289 135.177C220.818 140.352 220.546 142.021 220.499 146.258C220.452 150.547 220.569 151.377 221.333 152.235C224.877 156.168 230.853 148.518 234.655 135.177C235.682 131.568 237.074 126.735 237.749 124.443C238.419 122.146 238.916 120.238 238.846 120.201C237.266 119.376 235.128 117.585 234.547 116.61C233.628 115.049 233.582 111.885 234.458 110.193C235.513 108.144 236.877 107.207 239.966 106.401L242.868 105.641L244.574 100.255C249.758 83.9006 257.183 70.6584 265.757 62.4834C272.544 56.01 278.197 53.3803 285.327 53.3803C291.608 53.3803 294.233 55.274 294.636 60.0928C294.932 63.6834 294.393 64.4381 291.28 64.7615C284.268 65.4834 278.558 71.0334 273.463 82.0725C271.227 86.924 266.614 99.9693 266.614 101.455C266.614 101.877 271.677 101.258 276.861 100.208C279.275 99.7162 281.91 99.3131 282.721 99.3084C283.532 99.3084 284.474 99.1256 284.821 98.9053C285.168 98.685 286.25 96.21 287.23 93.4021C291.275 81.7818 295.738 72.2006 300.074 65.8162C304.93 58.6631 313.114 51.7865 319.419 49.5646C327.069 46.8646 335.989 48.51 340.447 53.4459C343.297 56.6053 344.146 58.785 344.169 63.0225C344.193 66.4021 344.052 67.0209 342.885 68.7834C341.305 71.1693 339.538 72.1584 338.628 71.16C338.291 70.7896 337.78 69.6412 337.485 68.6006C336.669 65.7037 334.222 63.6084 331.335 63.3318C325.503 62.774 319.841 68.3756 315.266 79.2318C313.007 84.6037 309.758 94.1193 310.119 94.3209C310.297 94.4193 311.919 94.3303 313.724 94.1193C321.238 93.2521 323.338 93.7865 324.083 96.7537C325.358 101.844 319.897 106.682 309.913 109.312L305.755 110.408L302.905 121.855C301.335 128.151 299.474 135.726 298.766 138.693C293.605 160.302 288.814 171.055 279.453 182.029C273.669 188.802 266.324 193.527 260.971 193.916C257.53 194.165 256.288 193.86 254.464 192.322C252.739 190.874 252.594 189.135 253.944 186.154L254.849 184.162H248.427L250.485 177.997C251.614 174.604 252.632 171.74 252.744 171.627C252.857 171.515 255.411 171.069 258.425 170.643L263.905 169.865L266.164 164.854C269.657 157.119 273.252 145.865 276.477 132.599C277.072 130.147 278.338 125.118 279.289 121.415L281.019 114.683L278.619 115.002C274.077 115.602 262.297 117.979 261.899 118.377C261.683 118.593 261.097 120.458 260.6 122.521C260.103 124.583 258.421 131.333 256.855 137.521C255.294 143.708 253.447 151.302 252.758 154.396C250.344 165.224 247.461 176.455 246.2 179.943C240.697 195.201 229.925 207.308 217.71 211.963C214.203 213.304 213.407 213.426 208.255 213.435C202.738 213.449 202.574 213.416 199.677 211.851C198.05 210.974 196.213 209.647 195.585 208.907C193.166 206.024 192.903 200.943 195.064 198.782L196.241 197.605L197.9 199.063C199.789 200.722 201.833 201.238 205.349 200.947C209.291 200.619 212.882 198.665 216.65 194.793C220.039 191.315 222.383 187.987 221.099 188.474C220.738 188.61 218.333 189.079 215.755 189.515C213.177 189.951 208.007 190.822 204.271 191.451C195.116 192.997 188.971 194.141 177.552 196.424C172.269 197.483 167.418 198.444 166.771 198.562C160.808 199.64 141.735 203.999 134.193 206.005C112.288 211.837 96.6644 217.274 82.1613 224.113C77.7784 226.18 72.73 228.374 70.9441 228.983ZM329.896 158.751C327.988 159.458 323.305 159.712 320.3 159.271C316.625 158.727 312.721 156.791 311.544 154.93C310.068 152.587 310.672 149.563 315.552 134.91C322.611 113.732 328.761 95.8865 329.657 94.0021C331.171 90.81 334.757 89.2115 339.543 89.5912C346.457 90.149 348.346 94.0725 345.35 101.662C344.586 103.593 343.963 105.318 343.958 105.491C343.958 105.66 346.222 104.113 348.988 102.051C357.046 96.0412 361.574 93.6412 366.566 92.7365C377.478 90.7584 383.666 97.4334 380.544 107.821C379.227 112.204 377.708 114.819 374.568 118.119C371.043 121.822 367.166 123.716 363.046 123.749C356.464 123.801 354.327 120.374 356.291 112.912C356.661 111.496 356.797 110.268 356.591 110.188C355.771 109.874 352.494 112.007 350.497 114.158C345.786 119.226 341.844 126.505 338.061 137.151C336.247 142.251 333.177 153.885 333.177 155.662C333.177 156.529 331.414 158.188 329.896 158.751ZM365.521 180.763C363.716 181.996 362.525 182.062 360.641 181.04C356.028 178.546 344.914 177.154 329.427 177.14C319.86 177.13 300.088 178.068 291.458 178.94C289.269 179.16 287.333 179.263 287.16 179.169C286.982 179.071 287.975 177.182 289.368 174.974C290.755 172.762 292.011 170.572 292.157 170.113C292.532 168.937 293.539 168.801 310.185 167.699C327.758 166.537 348.618 166.326 355.208 167.244C362.764 168.294 366.046 169.626 367.996 172.429C369.646 174.801 368.474 178.747 365.521 180.763ZM179.577 154.354C180.266 155.043 180.594 155.39 180.978 155.474C181.363 155.558 181.803 155.371 182.718 154.987C182.778 154.963 182.839 154.935 182.905 154.912C186.936 153.229 193.85 144.547 201.932 131.024C206.638 123.149 208.555 117.383 206.989 115.818C206.075 114.904 202.457 115.157 200.169 116.301C191.375 120.693 179.324 139.279 178.611 149.549C178.377 152.947 178.424 153.205 179.577 154.354Z" fill="white"/>
</g>
<defs>
<clipPath id="clip0_1_2">
<rect width="430" height="279" fill="white"/>
</clipPath>
</defs>
</svg>
